# xmcd CD database file generated by Grip 2.96
# 
# Track frame offsets:
#       150
#       13052
#       23242
#       35215
#       45845
#       58537
#       69655
#       82212
#       93512
#       104400
#       116512
#       126700
# 
# Disc length: 1834 seconds
# 
# Revision: 0
# Processed by: cddbd v1.4PL0 Copyright (c) Steve Scherf et al.
# Submitted via: Grip 2.96
# 
DISCID=a907280c
DTITLE=Johnny Cash - Greatest Hits First Performances
DYEAR=1900
DGENRE=
TTITLE0=Folsom Prison Blues
TTITLE1=Hey Porter
TTITLE2=So Doggone Lonesome
TTITLE3=There You Go
TTITLE4=Next In Line
TTITLE5=Cry, Cry, Cry
TTITLE6=I Walk The Line
TTITLE7=Don't Make Me Go
TTITLE8=Train Of Love
TTITLE9=Home Of The Blues
TTITLE10=Get Rhythm
TTITLE11=I Love You Because
EXTD=
EXTT0=
EXTT1=
EXTT2=
EXTT3=
EXTT4=
EXTT5=
EXTT6=
EXTT7=
EXTT8=
EXTT9=
EXTT10=
EXTT11=
PLAYORDER=
